# xmcd
#
# Track frame offsets:
#	150
#	15361
#	27971
#	39837
#	50800
#	62617
#	71551
#	84402
#	99848
#	111116
#	124117
#	138436
#	150483
#	162103
#	173642
#	184720
#	199909
#	211919
#	224889
#	237211
#
# Disc length: 3305 seconds
#
# Revision: 1
# Processed by: cddbd v1.5.1PL2 Copyright (c) Steve Scherf et al.
# Submitted via: EasyCDDAExtractor 6.5.5.1
#
DISCID=0b0ce714
DTITLE=Julio Jaramillo - 20 Exitos Inolvidables Vol. 3
DYEAR=1998
DGENRE=Blues
TTITLE0=Nuestro Juramento
TTITLE1=Dolor De Ausencia
TTITLE2=Si Hoy Fuera Ayer
TTITLE3=De Hinojos
TTITLE4=Esa
TTITLE5=Merceditas
TTITLE6=2 Años
TTITLE7=Rebeldia
TTITLE8=Mis Noches Sin Ti
TTITLE9=Interrogacion
TTITLE10=Navidad
TTITLE11=Acariciame
TTITLE12=Naufrago De Amor
TTITLE13=Noche De Reyes
TTITLE14=Las Cartas
TTITLE15=Amigos Y Mujeres
TTITLE16=Peregrina Sin Amor
TTITLE17=Tu Y Yo
TTITLE18=Con Mi Pena Morire
TTITLE19=No Te Da Verguenza
EXTD=
EXTT0=
EXTT1=
EXTT2=
EXTT3=
EXTT4=
EXTT5=
EXTT6=
EXTT7=
EXTT8=
EXTT9=
EXTT10=
EXTT11=
EXTT12=
EXTT13=
EXTT14=
EXTT15=
EXTT16=
EXTT17=
EXTT18=
EXTT19=
PLAYORDER=
